<?xml version="1.0" encoding="UTF-8" standalone="no"?>
<svg width="113px" height="40px" viewBox="0 0 113 40" version="1.1" xmlns="http://www.w3.org/2000/svg" xmlns:xlink="http://www.w3.org/1999/xlink" xmlns:sketch="http://www.bohemiancoding.com/sketch/ns">
    <!-- Generator: Sketch 3.4.2 (15855) - http://www.bohemiancoding.com/sketch -->
    <title>Logo</title>
    <desc>Created with Sketch.</desc>
    <defs></defs>
    <g id="the-happy" stroke="none" stroke-width="1" fill="none" fill-rule="evenodd" sketch:type="MSPage">
        <g id="Logo" sketch:type="MSArtboardGroup" transform="translate(0.000000, -4.000000)" fill="#00E676">
            <g sketch:type="MSLayerGroup" transform="translate(0.000000, 4.000000)">
                <path d="M2,14 L2,0 L0,0 L0,30 L2,30 L2,16 L18,16 L18,30 L20,30 L20,0 L18,0 L18,14 L2,14 L2,14 Z" id="H" sketch:type="MSShapeGroup"></path>
                <path d="M39.2187508,11.4681095 C39.6084268,10.6024592 40.4784512,10 41.5,10 C42.8807119,10 44,11.1181422 44,12.4925753 L44,27.5074247 C44,28.884036 42.8903379,30 41.5,30 C40.4855302,30 39.6121897,29.3963723 39.2202509,28.5309707 C37.7007263,29.4627811 35.9131003,30 34,30 C28.4771525,30 24,25.5228475 24,20 C24,14.4771525 28.4771525,10 34,10 C35.9124707,10 37.6995499,10.5368654 39.2187508,11.4681095 L39.2187508,11.4681095 L39.2187508,11.4681095 L39.2187508,11.4681095 Z M34,25 C36.7614237,25 39,22.7614237 39,20 C39,17.2385763 36.7614237,15 34,15 C31.2385763,15 29,17.2385763 29,20 C29,22.7614237 31.2385763,25 34,25 L34,25 L34,25 Z" id="Rectangle-41" sketch:type="MSShapeGroup"></path>
                <path d="M52.7773629,11.470493 C52.3842739,10.6028749 51.5124162,10 50.5,10 C49.1096621,10 48,11.1220565 48,12.5061832 L48,37.4938168 C48,38.8787172 49.1192881,40 50.5,40 C51.8903379,40 53,38.8779435 53,37.4938168 L53,28.662178 C54.4708668,29.5130286 56.1785643,30 58,30 C63.5228475,30 68,25.5228475 68,20 C68,14.4771525 63.5228475,10 58,10 C56.0858982,10 54.2974021,10.5377815 52.7773629,11.470493 L52.7773629,11.470493 Z M58,25 C60.7614237,25 63,22.7614237 63,20 C63,17.2385763 60.7614237,15 58,15 C55.2385763,15 53,17.2385763 53,20 C53,22.7614237 55.2385763,25 58,25 Z" id="Rectangle-41" sketch:type="MSShapeGroup"></path>
                <path d="M76.7773629,11.470493 C76.3842739,10.6028749 75.5124162,10 74.5,10 C73.1096621,10 72,11.1220565 72,12.5061832 L72,37.4938168 C72,38.8787172 73.1192881,40 74.5,40 C75.8903379,40 77,38.8779435 77,37.4938168 L77,28.662178 C78.4708668,29.5130286 80.1785643,30 82,30 C87.5228475,30 92,25.5228475 92,20 C92,14.4771525 87.5228475,10 82,10 C80.0858982,10 78.2974021,10.5377815 76.7773629,11.470493 L76.7773629,11.470493 Z M82,25 C84.7614237,25 87,22.7614237 87,20 C87,17.2385763 84.7614237,15 82,15 C79.2385763,15 77,17.2385763 77,20 C77,22.7614237 79.2385763,25 82,25 Z" id="Rectangle-41" sketch:type="MSShapeGroup"></path>
                <path d="M102.326695,29.5155375 L98,39.2334546 L99.8270909,40.0469279 L112.842663,10.8134733 L111.015573,10 L103.421332,27.0569442 L95.8270909,10 L94,10.8134733 L102.326695,29.5155375 L102.326695,29.5155375 Z" id="Y" sketch:type="MSShapeGroup"></path>
            </g>
        </g>
    </g>
</svg>