<?xml version="1.0" encoding="UTF-8" standalone="no"?>
<svg width="120px" height="120px" viewBox="0 0 120 120" version="1.1" xmlns="http://www.w3.org/2000/svg" xmlns:xlink="http://www.w3.org/1999/xlink" xmlns:sketch="http://www.bohemiancoding.com/sketch/ns">
    <!-- Generator: Sketch 3.5.1 (25234) - http://www.bohemiancoding.com/sketch -->
    <title>Group 2</title>
    <desc>Created with Sketch.</desc>
    <defs>
        <linearGradient x1="50%" y1="0%" x2="50%" y2="100%" id="linearGradient-1">
            <stop stop-color="#000000" stop-opacity="0.5" offset="1.6402264%"></stop>
            <stop stop-color="#000000" stop-opacity="0.8" offset="97.7957589%"></stop>
        </linearGradient>
    </defs>
    <g id="the-happy" stroke="none" stroke-width="1" fill="none" fill-rule="evenodd" sketch:type="MSPage">
        <g id="Web" sketch:type="MSArtboardGroup" transform="translate(-815.000000, -213.000000)">
            <g id="01" sketch:type="MSLayerGroup" transform="translate(805.000000, 196.000000)">
                <g id="Group-2" transform="translate(10.000000, 17.000000)" sketch:type="MSShapeGroup">
                    <rect id="Base" opacity="0.4" fill="url(#linearGradient-1)" x="0" y="0" width="120" height="120" rx="28"></rect>
                    <g id="Group" transform="translate(10.000000, 10.000000)" fill-opacity="0.96" fill="#FFFFFF">
                        <path d="M50,100 C77.6142375,100 100,77.6142375 100,50 C100,22.3857625 77.6142375,0 50,0 C22.3857625,0 0,22.3857625 0,50 C0,77.6142375 22.3857625,100 50,100 Z M81.5915981,69.2702698 C82.56624,67.6756731 81.0157923,65.7344045 79.2451751,66.3323845 C70.1898622,69.3905815 60.2582539,71 50,71 C39.7417461,71 29.8101378,69.3905815 20.7548249,66.3323845 C18.9842077,65.7344045 17.43376,67.6756731 18.4084019,69.2702698 C25.085418,80.1944342 36.9570176,87 50,87 C63.0429824,87 74.914582,80.1944342 81.5915981,69.2702698 Z" id="Kruh"></path>
                    </g>
                </g>
            </g>
        </g>
    </g>
</svg>